<svg xmlns="http://www.w3.org/2000/svg" xmlns:xlink="http://www.w3.org/1999/xlink" version="1.1" class="marks" width="934" height="464" viewBox="0 0 934 464"><rect width="934" height="464" fill="white"/><g fill="none" stroke-miterlimit="10" transform="translate(48,27)"><g class="mark-group role-frame root" role="graphics-object" aria-roledescription="group mark container"><g transform="translate(0,0)"><path class="background" aria-hidden="true" d="M0.5,0.5h800v400h-800Z" stroke="#ddd"/><g><g class="mark-group role-axis" aria-hidden="true"><g transform="translate(0.5,0.5)"><path class="background" aria-hidden="true" d="M0,0h0v0h0Z" pointer-events="none"/><g><g class="mark-rule role-axis-grid" pointer-events="none"><line transform="translate(0,400)" x2="800" y2="0" stroke="#ddd" stroke-width="1" opacity="1"/><line transform="translate(0,350)" x2="800" y2="0" stroke="#ddd" stroke-width="1" opacity="1"/><line transform="translate(0,300)" x2="800" y2="0" stroke="#ddd" stroke-width="1" opacity="1"/><line transform="translate(0,250)" x2="800" y2="0" stroke="#ddd" stroke-width="1" opacity="1"/><line transform="translate(0,200)" x2="800" y2="0" stroke="#ddd" stroke-width="1" opacity="1"/><line transform="translate(0,150)" x2="800" y2="0" stroke="#ddd" stroke-width="1" opacity="1"/><line transform="translate(0,100)" x2="800" y2="0" stroke="#ddd" stroke-width="1" opacity="1"/><line transform="translate(0,50)" x2="800" y2="0" stroke="#ddd" stroke-width="1" opacity="1"/><line transform="translate(0,0)" x2="800" y2="0" stroke="#ddd" stroke-width="1" opacity="1"/></g></g><path class="foreground" aria-hidden="true" d="" pointer-events="none" display="none"/></g></g><g class="mark-group role-axis" role="graphics-symbol" aria-roledescription="axis" aria-label="X-axis titled 'Election Year' for a discrete scale with 9 values: 1988, 1992, 1996, 2000, 2004, ending with 2020"><g transform="translate(0.5,400.5)"><path class="background" aria-hidden="true" d="M0,0h0v0h0Z" pointer-events="none"/><g><g class="mark-rule role-axis-tick" pointer-events="none"><line transform="translate(44,0)" x2="0" y2="5" stroke="#888" stroke-width="1" opacity="1"/><line transform="translate(133,0)" x2="0" y2="5" stroke="#888" stroke-width="1" opacity="1"/><line transform="translate(222,0)" x2="0" y2="5" stroke="#888" stroke-width="1" opacity="1"/><line transform="translate(311,0)" x2="0" y2="5" stroke="#888" stroke-width="1" opacity="1"/><line transform="translate(400,0)" x2="0" y2="5" stroke="#888" stroke-width="1" opacity="1"/><line transform="translate(489,0)" x2="0" y2="5" stroke="#888" stroke-width="1" opacity="1"/><line transform="translate(578,0)" x2="0" y2="5" stroke="#888" stroke-width="1" opacity="1"/><line transform="translate(667,0)" x2="0" y2="5" stroke="#888" stroke-width="1" opacity="1"/><line transform="translate(756,0)" x2="0" y2="5" stroke="#888" stroke-width="1" opacity="1"/></g><g class="mark-text role-axis-label" pointer-events="none"><text text-anchor="middle" transform="translate(44.44444444444446,15)" font-family="sans-serif" font-size="10px" fill="#000" opacity="1">1988</text><text text-anchor="middle" transform="translate(133.33333333333334,15)" font-family="sans-serif" font-size="10px" fill="#000" opacity="1">1992</text><text text-anchor="middle" transform="translate(222.22222222222223,15)" font-family="sans-serif" font-size="10px" fill="#000" opacity="1">1996</text><text text-anchor="middle" transform="translate(311.1111111111111,15)" font-family="sans-serif" font-size="10px" fill="#000" opacity="1">2000</text><text text-anchor="middle" transform="translate(400,15)" font-family="sans-serif" font-size="10px" fill="#000" opacity="1">2004</text><text text-anchor="middle" transform="translate(488.8888888888889,15)" font-family="sans-serif" font-size="10px" fill="#000" opacity="1">2008</text><text text-anchor="middle" transform="translate(577.7777777777777,15)" font-family="sans-serif" font-size="10px" fill="#000" opacity="1">2012</text><text text-anchor="middle" transform="translate(666.6666666666666,15)" font-family="sans-serif" font-size="10px" fill="#000" opacity="1">2016</text><text text-anchor="middle" transform="translate(755.5555555555555,15)" font-family="sans-serif" font-size="10px" fill="#000" opacity="1">2020</text></g><g class="mark-rule role-axis-domain" pointer-events="none"><line transform="translate(0,0)" x2="800" y2="0" stroke="#888" stroke-width="1" opacity="1"/></g><g class="mark-text role-axis-title" pointer-events="none"><text text-anchor="middle" transform="translate(400,30)" font-family="sans-serif" font-size="11px" font-weight="bold" fill="#000" opacity="1">Election Year</text></g></g><path class="foreground" aria-hidden="true" d="" pointer-events="none" display="none"/></g></g><g class="mark-group role-axis" role="graphics-symbol" aria-roledescription="axis" aria-label="Y-axis titled 'Turnout Rate' for a linear scale with values from 0% to 80%"><g transform="translate(0.5,0.5)"><path class="background" aria-hidden="true" d="M0,0h0v0h0Z" pointer-events="none"/><g><g class="mark-rule role-axis-tick" pointer-events="none"><line transform="translate(0,400)" x2="-5" y2="0" stroke="#888" stroke-width="1" opacity="1"/><line transform="translate(0,350)" x2="-5" y2="0" stroke="#888" stroke-width="1" opacity="1"/><line transform="translate(0,300)" x2="-5" y2="0" stroke="#888" stroke-width="1" opacity="1"/><line transform="translate(0,250)" x2="-5" y2="0" stroke="#888" stroke-width="1" opacity="1"/><line transform="translate(0,200)" x2="-5" y2="0" stroke="#888" stroke-width="1" opacity="1"/><line transform="translate(0,150)" x2="-5" y2="0" stroke="#888" stroke-width="1" opacity="1"/><line transform="translate(0,100)" x2="-5" y2="0" stroke="#888" stroke-width="1" opacity="1"/><line transform="translate(0,50)" x2="-5" y2="0" stroke="#888" stroke-width="1" opacity="1"/><line transform="translate(0,0)" x2="-5" y2="0" stroke="#888" stroke-width="1" opacity="1"/></g><g class="mark-text role-axis-label" pointer-events="none"><text text-anchor="end" transform="translate(-7,403)" font-family="sans-serif" font-size="10px" fill="#000" opacity="1">0%</text><text text-anchor="end" transform="translate(-7,353)" font-family="sans-serif" font-size="10px" fill="#000" opacity="1">10%</text><text text-anchor="end" transform="translate(-7,303)" font-family="sans-serif" font-size="10px" fill="#000" opacity="1">20%</text><text text-anchor="end" transform="translate(-7,253)" font-family="sans-serif" font-size="10px" fill="#000" opacity="1">30%</text><text text-anchor="end" transform="translate(-7,203)" font-family="sans-serif" font-size="10px" fill="#000" opacity="1">40%</text><text text-anchor="end" transform="translate(-7,153)" font-family="sans-serif" font-size="10px" fill="#000" opacity="1">50%</text><text text-anchor="end" transform="translate(-7,103.00000000000004)" font-family="sans-serif" font-size="10px" fill="#000" opacity="1">60%</text><text text-anchor="end" transform="translate(-7,53.00000000000004)" font-family="sans-serif" font-size="10px" fill="#000" opacity="1">70%</text><text text-anchor="end" transform="translate(-7,3)" font-family="sans-serif" font-size="10px" fill="#000" opacity="1">80%</text></g><g class="mark-rule role-axis-domain" pointer-events="none"><line transform="translate(0,400)" x2="0" y2="-400" stroke="#888" stroke-width="1" opacity="1"/></g><g class="mark-text role-axis-title" pointer-events="none"><text text-anchor="middle" transform="translate(-31.0146484375,200) rotate(-90) translate(0,-2)" font-family="sans-serif" font-size="11px" font-weight="bold" fill="#000" opacity="1">Turnout Rate</text></g></g><path class="foreground" aria-hidden="true" d="" pointer-events="none" display="none"/></g></g><g class="mark-group role-scope layer_0_pathgroup" role="graphics-object" aria-roledescription="group mark container"><g transform="translate(0,0)"><path class="background" aria-hidden="true" d="M0,0h800v400h-800Z"/><g><g class="mark-line role-mark layer_0_marks" role="graphics-object" aria-roledescription="line mark container"><path aria-label="Election Year: 1988; Turnout Rate: 35.700000%; Age Group: Age 18-29; Year: 1988" role="graphics-symbol" aria-roledescription="line mark" d="M44.444,221.5L133.333,186.5L222.222,234.5L311.111,227.5L400,175L488.889,158L577.778,195.5L666.667,183L755.556,137.45" stroke="#4c78a8" stroke-width="2"/></g></g><path class="foreground" aria-hidden="true" d="" display="none"/></g><g transform="translate(0,0)"><path class="background" aria-hidden="true" d="M0,0h800v400h-800Z"/><g><g class="mark-line role-mark layer_0_marks" role="graphics-object" aria-roledescription="line mark container"><path aria-label="Election Year: 1988; Turnout Rate: 54.200000%; Age Group: Age 30-44; Year: 1988" role="graphics-symbol" aria-roledescription="line mark" d="M44.444,129L133.333,105L222.222,147.5L311.111,130L400,102.5L488.889,96.5L577.778,119L666.667,115.45L755.556,77.8" stroke="#f58518" stroke-width="2"/></g></g><path class="foreground" aria-hidden="true" d="" display="none"/></g><g transform="translate(0,0)"><path class="background" aria-hidden="true" d="M0,0h800v400h-800Z"/><g><g class="mark-line role-mark layer_0_marks" role="graphics-object" aria-roledescription="line mark container"><path aria-label="Election Year: 1988; Turnout Rate: 64.700000%; Age Group: Age 45-59; Year: 1988" role="graphics-symbol" aria-roledescription="line mark" d="M44.444,76.5L133.333,60L222.222,87.5L311.111,78.5L400,55L488.889,52.5L577.778,70L666.667,68.85L755.556,35.45" stroke="#e45756" stroke-width="2"/></g></g><path class="foreground" aria-hidden="true" d="" display="none"/></g><g transform="translate(0,0)"><path class="background" aria-hidden="true" d="M0,0h800v400h-800Z"/><g><g class="mark-line role-mark layer_0_marks" role="graphics-object" aria-roledescription="line mark container"><path aria-label="Election Year: 1988; Turnout Rate: 64.700000%; Age Group: Age 60+; Year: 1988" role="graphics-symbol" aria-roledescription="line mark" d="M44.444,76.5L133.333,60L222.222,71.5L311.111,63.5L400,51.5L488.889,45L577.778,44L666.667,43.1L755.556,9.8" stroke="#72b7b2" stroke-width="2"/></g></g><path class="foreground" aria-hidden="true" d="" display="none"/></g></g><g class="mark-symbol role-mark layer_1_marks" role="graphics-object" aria-roledescription="symbol mark container"><path aria-label="Election Year: 2020; Turnout Rate: 52.510000%; Age Group: Age 18-29; Year: 2020" role="graphics-symbol" aria-roledescription="point" transform="translate(755.5555555555555,137.45000000000002)" d="M2.739,0A2.739,2.739,0,1,1,-2.739,0A2.739,2.739,0,1,1,2.739,0" fill="#4c78a8" stroke-width="2" opacity="1"/><path aria-label="Election Year: 2016; Turnout Rate: 43.400000%; Age Group: Age 18-29; Year: 2016" role="graphics-symbol" aria-roledescription="point" transform="translate(666.6666666666666,183)" d="M2.739,0A2.739,2.739,0,1,1,-2.739,0A2.739,2.739,0,1,1,2.739,0" fill="#4c78a8" stroke-width="2" opacity="1"/><path aria-label="Election Year: 2012; Turnout Rate: 40.900000%; Age Group: Age 18-29; Year: 2012" role="graphics-symbol" aria-roledescription="point" transform="translate(577.7777777777777,195.5)" d="M2.739,0A2.739,2.739,0,1,1,-2.739,0A2.739,2.739,0,1,1,2.739,0" fill="#4c78a8" stroke-width="2" opacity="1"/><path aria-label="Election Year: 2008; Turnout Rate: 48.400000%; Age Group: Age 18-29; Year: 2008" role="graphics-symbol" aria-roledescription="point" transform="translate(488.8888888888889,158)" d="M2.739,0A2.739,2.739,0,1,1,-2.739,0A2.739,2.739,0,1,1,2.739,0" fill="#4c78a8" stroke-width="2" opacity="1"/><path aria-label="Election Year: 2004; Turnout Rate: 45.000000%; Age Group: Age 18-29; Year: 2004" role="graphics-symbol" aria-roledescription="point" transform="translate(400,175)" d="M2.739,0A2.739,2.739,0,1,1,-2.739,0A2.739,2.739,0,1,1,2.739,0" fill="#4c78a8" stroke-width="2" opacity="1"/><path aria-label="Election Year: 2000; Turnout Rate: 34.500000%; Age Group: Age 18-29; Year: 2000" role="graphics-symbol" aria-roledescription="point" transform="translate(311.1111111111111,227.50000000000003)" d="M2.739,0A2.739,2.739,0,1,1,-2.739,0A2.739,2.739,0,1,1,2.739,0" fill="#4c78a8" stroke-width="2" opacity="1"/><path aria-label="Election Year: 1996; Turnout Rate: 33.100000%; Age Group: Age 18-29; Year: 1996" role="graphics-symbol" aria-roledescription="point" transform="translate(222.22222222222223,234.49999999999997)" d="M2.739,0A2.739,2.739,0,1,1,-2.739,0A2.739,2.739,0,1,1,2.739,0" fill="#4c78a8" stroke-width="2" opacity="1"/><path aria-label="Election Year: 1992; Turnout Rate: 42.700000%; Age Group: Age 18-29; Year: 1992" role="graphics-symbol" aria-roledescription="point" transform="translate(133.33333333333334,186.50000000000003)" d="M2.739,0A2.739,2.739,0,1,1,-2.739,0A2.739,2.739,0,1,1,2.739,0" fill="#4c78a8" stroke-width="2" opacity="1"/><path aria-label="Election Year: 1988; Turnout Rate: 35.700000%; Age Group: Age 18-29; Year: 1988" role="graphics-symbol" aria-roledescription="point" transform="translate(44.44444444444446,221.5)" d="M2.739,0A2.739,2.739,0,1,1,-2.739,0A2.739,2.739,0,1,1,2.739,0" fill="#4c78a8" stroke-width="2" opacity="1"/><path aria-label="Election Year: 2020; Turnout Rate: 64.440000%; Age Group: Age 30-44; Year: 2020" role="graphics-symbol" aria-roledescription="point" transform="translate(755.5555555555555,77.80000000000004)" d="M2.739,0A2.739,2.739,0,1,1,-2.739,0A2.739,2.739,0,1,1,2.739,0" fill="#f58518" stroke-width="2" opacity="1"/><path aria-label="Election Year: 2016; Turnout Rate: 56.910000%; Age Group: Age 30-44; Year: 2016" role="graphics-symbol" aria-roledescription="point" transform="translate(666.6666666666666,115.45)" d="M2.739,0A2.739,2.739,0,1,1,-2.739,0A2.739,2.739,0,1,1,2.739,0" fill="#f58518" stroke-width="2" opacity="1"/><path aria-label="Election Year: 2012; Turnout Rate: 56.200000%; Age Group: Age 30-44; Year: 2012" role="graphics-symbol" aria-roledescription="point" transform="translate(577.7777777777777,119)" d="M2.739,0A2.739,2.739,0,1,1,-2.739,0A2.739,2.739,0,1,1,2.739,0" fill="#f58518" stroke-width="2" opacity="1"/><path aria-label="Election Year: 2008; Turnout Rate: 60.700000%; Age Group: Age 30-44; Year: 2008" role="graphics-symbol" aria-roledescription="point" transform="translate(488.8888888888889,96.50000000000003)" d="M2.739,0A2.739,2.739,0,1,1,-2.739,0A2.739,2.739,0,1,1,2.739,0" fill="#f58518" stroke-width="2" opacity="1"/><path aria-label="Election Year: 2004; Turnout Rate: 59.500000%; Age Group: Age 30-44; Year: 2004" role="graphics-symbol" aria-roledescription="point" transform="translate(400,102.50000000000003)" d="M2.739,0A2.739,2.739,0,1,1,-2.739,0A2.739,2.739,0,1,1,2.739,0" fill="#f58518" stroke-width="2" opacity="1"/><path aria-label="Election Year: 2000; Turnout Rate: 54.000000%; Age Group: Age 30-44; Year: 2000" role="graphics-symbol" aria-roledescription="point" transform="translate(311.1111111111111,129.99999999999997)" d="M2.739,0A2.739,2.739,0,1,1,-2.739,0A2.739,2.739,0,1,1,2.739,0" fill="#f58518" stroke-width="2" opacity="1"/><path aria-label="Election Year: 1996; Turnout Rate: 50.500000%; Age Group: Age 30-44; Year: 1996" role="graphics-symbol" aria-roledescription="point" transform="translate(222.22222222222223,147.5)" d="M2.739,0A2.739,2.739,0,1,1,-2.739,0A2.739,2.739,0,1,1,2.739,0" fill="#f58518" stroke-width="2" opacity="1"/><path aria-label="Election Year: 1992; Turnout Rate: 59.000000%; Age Group: Age 30-44; Year: 1992" role="graphics-symbol" aria-roledescription="point" transform="translate(133.33333333333334,105.00000000000003)" d="M2.739,0A2.739,2.739,0,1,1,-2.739,0A2.739,2.739,0,1,1,2.739,0" fill="#f58518" stroke-width="2" opacity="1"/><path aria-label="Election Year: 1988; Turnout Rate: 54.200000%; Age Group: Age 30-44; Year: 1988" role="graphics-symbol" aria-roledescription="point" transform="translate(44.44444444444446,129)" d="M2.739,0A2.739,2.739,0,1,1,-2.739,0A2.739,2.739,0,1,1,2.739,0" fill="#f58518" stroke-width="2" opacity="1"/><path aria-label="Election Year: 2020; Turnout Rate: 72.910000%; Age Group: Age 45-59; Year: 2020" role="graphics-symbol" aria-roledescription="point" transform="translate(755.5555555555555,35.450000000000024)" d="M2.739,0A2.739,2.739,0,1,1,-2.739,0A2.739,2.739,0,1,1,2.739,0" fill="#e45756" stroke-width="2" opacity="1"/><path aria-label="Election Year: 2016; Turnout Rate: 66.230000%; Age Group: Age 45-59; Year: 2016" role="graphics-symbol" aria-roledescription="point" transform="translate(666.6666666666666,68.85000000000004)" d="M2.739,0A2.739,2.739,0,1,1,-2.739,0A2.739,2.739,0,1,1,2.739,0" fill="#e45756" stroke-width="2" opacity="1"/><path aria-label="Election Year: 2012; Turnout Rate: 66.000000%; Age Group: Age 45-59; Year: 2012" role="graphics-symbol" aria-roledescription="point" transform="translate(577.7777777777777,70.00000000000001)" d="M2.739,0A2.739,2.739,0,1,1,-2.739,0A2.739,2.739,0,1,1,2.739,0" fill="#e45756" stroke-width="2" opacity="1"/><path aria-label="Election Year: 2008; Turnout Rate: 69.500000%; Age Group: Age 45-59; Year: 2008" role="graphics-symbol" aria-roledescription="point" transform="translate(488.8888888888889,52.500000000000036)" d="M2.739,0A2.739,2.739,0,1,1,-2.739,0A2.739,2.739,0,1,1,2.739,0" fill="#e45756" stroke-width="2" opacity="1"/><path aria-label="Election Year: 2004; Turnout Rate: 69.000000%; Age Group: Age 45-59; Year: 2004" role="graphics-symbol" aria-roledescription="point" transform="translate(400,55.00000000000003)" d="M2.739,0A2.739,2.739,0,1,1,-2.739,0A2.739,2.739,0,1,1,2.739,0" fill="#e45756" stroke-width="2" opacity="1"/><path aria-label="Election Year: 2000; Turnout Rate: 64.300000%; Age Group: Age 45-59; Year: 2000" role="graphics-symbol" aria-roledescription="point" transform="translate(311.1111111111111,78.50000000000001)" d="M2.739,0A2.739,2.739,0,1,1,-2.739,0A2.739,2.739,0,1,1,2.739,0" fill="#e45756" stroke-width="2" opacity="1"/><path aria-label="Election Year: 1996; Turnout Rate: 62.500000%; Age Group: Age 45-59; Year: 1996" role="graphics-symbol" aria-roledescription="point" transform="translate(222.22222222222223,87.5)" d="M2.739,0A2.739,2.739,0,1,1,-2.739,0A2.739,2.739,0,1,1,2.739,0" fill="#e45756" stroke-width="2" opacity="1"/><path aria-label="Election Year: 1992; Turnout Rate: 68.000000%; Age Group: Age 45-59; Year: 1992" role="graphics-symbol" aria-roledescription="point" transform="translate(133.33333333333334,60.00000000000001)" d="M2.739,0A2.739,2.739,0,1,1,-2.739,0A2.739,2.739,0,1,1,2.739,0" fill="#e45756" stroke-width="2" opacity="1"/><path aria-label="Election Year: 1988; Turnout Rate: 64.700000%; Age Group: Age 45-59; Year: 1988" role="graphics-symbol" aria-roledescription="point" transform="translate(44.44444444444446,76.50000000000001)" d="M2.739,0A2.739,2.739,0,1,1,-2.739,0A2.739,2.739,0,1,1,2.739,0" fill="#e45756" stroke-width="2" opacity="1"/><path aria-label="Election Year: 2020; Turnout Rate: 78.040000%; Age Group: Age 60+; Year: 2020" role="graphics-symbol" aria-roledescription="point" transform="translate(755.5555555555555,9.800000000000031)" d="M2.739,0A2.739,2.739,0,1,1,-2.739,0A2.739,2.739,0,1,1,2.739,0" fill="#72b7b2" stroke-width="2" opacity="1"/><path aria-label="Election Year: 2016; Turnout Rate: 71.380000%; Age Group: Age 60+; Year: 2016" role="graphics-symbol" aria-roledescription="point" transform="translate(666.6666666666666,43.10000000000001)" d="M2.739,0A2.739,2.739,0,1,1,-2.739,0A2.739,2.739,0,1,1,2.739,0" fill="#72b7b2" stroke-width="2" opacity="1"/><path aria-label="Election Year: 2012; Turnout Rate: 71.200000%; Age Group: Age 60+; Year: 2012" role="graphics-symbol" aria-roledescription="point" transform="translate(577.7777777777777,44.00000000000004)" d="M2.739,0A2.739,2.739,0,1,1,-2.739,0A2.739,2.739,0,1,1,2.739,0" fill="#72b7b2" stroke-width="2" opacity="1"/><path aria-label="Election Year: 2008; Turnout Rate: 71.000000%; Age Group: Age 60+; Year: 2008" role="graphics-symbol" aria-roledescription="point" transform="translate(488.8888888888889,45.000000000000014)" d="M2.739,0A2.739,2.739,0,1,1,-2.739,0A2.739,2.739,0,1,1,2.739,0" fill="#72b7b2" stroke-width="2" opacity="1"/><path aria-label="Election Year: 2004; Turnout Rate: 69.700000%; Age Group: Age 60+; Year: 2004" role="graphics-symbol" aria-roledescription="point" transform="translate(400,51.50000000000006)" d="M2.739,0A2.739,2.739,0,1,1,-2.739,0A2.739,2.739,0,1,1,2.739,0" fill="#72b7b2" stroke-width="2" opacity="1"/><path aria-label="Election Year: 2000; Turnout Rate: 67.300000%; Age Group: Age 60+; Year: 2000" role="graphics-symbol" aria-roledescription="point" transform="translate(311.1111111111111,63.49999999999998)" d="M2.739,0A2.739,2.739,0,1,1,-2.739,0A2.739,2.739,0,1,1,2.739,0" fill="#72b7b2" stroke-width="2" opacity="1"/><path aria-label="Election Year: 1996; Turnout Rate: 65.700000%; Age Group: Age 60+; Year: 1996" role="graphics-symbol" aria-roledescription="point" transform="translate(222.22222222222223,71.49999999999999)" d="M2.739,0A2.739,2.739,0,1,1,-2.739,0A2.739,2.739,0,1,1,2.739,0" fill="#72b7b2" stroke-width="2" opacity="1"/><path aria-label="Election Year: 1992; Turnout Rate: 68.000000%; Age Group: Age 60+; Year: 1992" role="graphics-symbol" aria-roledescription="point" transform="translate(133.33333333333334,60.00000000000001)" d="M2.739,0A2.739,2.739,0,1,1,-2.739,0A2.739,2.739,0,1,1,2.739,0" fill="#72b7b2" stroke-width="2" opacity="1"/><path aria-label="Election Year: 1988; Turnout Rate: 64.700000%; Age Group: Age 60+; Year: 1988" role="graphics-symbol" aria-roledescription="point" transform="translate(44.44444444444446,76.50000000000001)" d="M2.739,0A2.739,2.739,0,1,1,-2.739,0A2.739,2.739,0,1,1,2.739,0" fill="#72b7b2" stroke-width="2" opacity="1"/></g><g class="mark-group role-legend" role="graphics-symbol" aria-roledescription="legend" aria-label="Symbol legend titled 'Age Group' for fill color and stroke color with 4 values: Age 18-29, Age 30-44, Age 45-59, Age 60+"><g transform="translate(818,0)"><path class="background" aria-hidden="true" d="M0,0h63v77h-63Z" pointer-events="none"/><g><g class="mark-group role-legend-entry"><g transform="translate(0,16)"><path class="background" aria-hidden="true" d="M0,0h0v0h0Z" pointer-events="none"/><g><g class="mark-group role-scope" role="graphics-object" aria-roledescription="group mark container"><g transform="translate(0,0)"><path class="background" aria-hidden="true" d="M0,0h62.1474609375v12.5h-62.1474609375Z" pointer-events="none" opacity="1"/><g><g class="mark-symbol role-legend-symbol" pointer-events="none"><path transform="translate(6,6)" d="M5,0A5,5,0,1,1,-5,0A5,5,0,1,1,5,0" fill="#4c78a8" stroke="#4c78a8" stroke-width="1.5" opacity="1"/></g><g class="mark-text role-legend-label" pointer-events="none"><text text-anchor="start" transform="translate(16,9)" font-family="sans-serif" font-size="10px" fill="#000" opacity="1">Age 18-29</text></g></g><path class="foreground" aria-hidden="true" d="" pointer-events="none" display="none"/></g><g transform="translate(0,16)"><path class="background" aria-hidden="true" d="M0,0h62.1474609375v12.5h-62.1474609375Z" pointer-events="none" opacity="1"/><g><g class="mark-symbol role-legend-symbol" pointer-events="none"><path transform="translate(6,6)" d="M5,0A5,5,0,1,1,-5,0A5,5,0,1,1,5,0" fill="#f58518" stroke="#f58518" stroke-width="1.5" opacity="1"/></g><g class="mark-text role-legend-label" pointer-events="none"><text text-anchor="start" transform="translate(16,9)" font-family="sans-serif" font-size="10px" fill="#000" opacity="1">Age 30-44</text></g></g><path class="foreground" aria-hidden="true" d="" pointer-events="none" display="none"/></g><g transform="translate(0,32)"><path class="background" aria-hidden="true" d="M0,0h62.1474609375v12.5h-62.1474609375Z" pointer-events="none" opacity="1"/><g><g class="mark-symbol role-legend-symbol" pointer-events="none"><path transform="translate(6,6)" d="M5,0A5,5,0,1,1,-5,0A5,5,0,1,1,5,0" fill="#e45756" stroke="#e45756" stroke-width="1.5" opacity="1"/></g><g class="mark-text role-legend-label" pointer-events="none"><text text-anchor="start" transform="translate(16,9)" font-family="sans-serif" font-size="10px" fill="#000" opacity="1">Age 45-59</text></g></g><path class="foreground" aria-hidden="true" d="" pointer-events="none" display="none"/></g><g transform="translate(0,48)"><path class="background" aria-hidden="true" d="M0,0h62.1474609375v12.5h-62.1474609375Z" pointer-events="none" opacity="1"/><g><g class="mark-symbol role-legend-symbol" pointer-events="none"><path transform="translate(6,6)" d="M5,0A5,5,0,1,1,-5,0A5,5,0,1,1,5,0" fill="#72b7b2" stroke="#72b7b2" stroke-width="1.5" opacity="1"/></g><g class="mark-text role-legend-label" pointer-events="none"><text text-anchor="start" transform="translate(16,9)" font-family="sans-serif" font-size="10px" fill="#000" opacity="1">Age 60+</text></g></g><path class="foreground" aria-hidden="true" d="" pointer-events="none" display="none"/></g></g></g><path class="foreground" aria-hidden="true" d="" pointer-events="none" display="none"/></g></g><g class="mark-text role-legend-title" pointer-events="none"><text text-anchor="start" transform="translate(0,9)" font-family="sans-serif" font-size="11px" font-weight="bold" fill="#000" opacity="1">Age Group</text></g></g><path class="foreground" aria-hidden="true" d="" pointer-events="none" display="none"/></g></g><g class="mark-group role-title"><g transform="translate(400,-22)"><path class="background" aria-hidden="true" d="M0,0h0v0h0Z" pointer-events="none"/><g><g class="mark-text role-title-text" role="graphics-symbol" aria-roledescription="title" aria-label="Title text 'Voter Turnout by Age Group in Presidential Elections (1988+)'" pointer-events="none"><text text-anchor="middle" transform="translate(0,10)" font-family="sans-serif" font-size="13px" font-weight="bold" fill="#000" opacity="1">Voter Turnout by Age Group in Presidential Elections (1988+)</text></g></g><path class="foreground" aria-hidden="true" d="" pointer-events="none" display="none"/></g></g></g><path class="foreground" aria-hidden="true" d="" display="none"/></g></g></g></svg>